<svg xmlns="http://www.w3.org/2000/svg" version="1.1" viewBox="430 600 1170 105">
<path transform="matrix(1,0,0,-1,450.2942,621.81039)" d="M0 0V-10.766H3.8C3.8-5.362 5.044-1.478 7.536 .887 10.026 3.25 13.635 4.434 18.365 4.434H27.358V-73.46H43.823V4.434H70.294V10.133H10.766C3.588 10.133 0 6.755 0 0" fill="#215433"/>
<path transform="matrix(1,0,0,-1,617.7327,686.3406)" d="M0 0C-3.21-2.153-7.219-3.23-12.032-3.23H-33.69V31.601H-.76V37.3H-33.69V68.964H-13.299C-8.064 68.964-4.116 67.738-1.457 65.291 1.203 62.841 2.533 58.999 2.533 53.765H6.333V64.53C6.333 71.285 2.743 74.663-4.433 74.663H-60.288V70.863H-59.021C-55.475 70.863-53.112 69.828-51.929 67.761-50.748 65.69-50.156 62.504-50.156 58.198V-8.93H-3.293C-.085-8.93 2.28-8.213 3.8-6.776 5.319-5.342 6.627-3.104 7.726-.063L11.399 9.942 7.979 11.209C5.868 5.889 3.208 2.152 0 0" fill="#215433"/>
<path transform="matrix(1,0,0,-1,733.115,666.8992)" d="M0 0V-22.545C-4.813-24.741-10.512-25.838-17.099-25.838-25.628-25.838-32.404-22.693-37.427-16.402-42.451-10.113-44.963 .253-44.963 14.691-44.963 25.414-42.683 34.323-38.123 41.416-33.563 48.509-26.556 52.056-17.099 52.056-9.669 52.056-3.821 50.282 .443 46.735 4.706 43.189 7.641 37.573 9.246 29.891H13.046C13.046 34.026 12.855 37.531 12.476 40.403 12.096 43.272 11.188 45.638 9.752 47.496 7.22 50.45 3.335 52.898-1.9 54.842-7.136 56.783-13.469 57.755-20.898 57.755-29.089 57.755-36.372 55.875-42.746 52.119-49.123 48.36-54.041 43.209-57.501 36.667-60.965 30.122-62.694 22.798-62.694 14.691-62.694 6.247-60.731-1.457-56.805-8.423-52.879-15.389-47.433-20.879-40.466-24.888-33.5-28.897-25.711-30.904-17.099-30.904-10.512-30.904-4.477-30.228 1.013-28.878 6.501-27.528 11.652-25.375 16.465-22.418V.253C16.465 8.274 19.167 12.285 24.571 12.285V15.452C14.945 15.452 8.442 13.995 5.066 11.082 1.688 8.169 0 4.475 0 0" fill="#215433"/>
<path transform="matrix(1,0,0,-1,866.4832,658.79379)" d="M0 0C0-11.146-1.963-19.273-5.89-24.381-9.816-29.49-16.085-32.044-24.698-32.044-31.201-32.044-36.161-29.574-39.58-24.634-43-19.694-44.753-12.75-44.836-3.8L-44.963 30.651C-44.963 34.957-45.301 38.271-45.976 40.594-46.653 42.915-47.793 44.583-49.396 45.597-51.001 46.609-53.322 47.116-56.362 47.116H-70.294V43.316C-66.748 43.316-64.385 42.281-63.202 40.214-62.02 38.144-61.428 34.957-61.428 30.651V0C-61.428-25.163-50.029-37.743-27.231-37.743-15.326-37.743-6.756-34.557-1.52-28.181 3.714-21.807 6.333-12.412 6.333 0V47.116H0Z" fill="#215433"/>
<path transform="matrix(1,0,0,-1,1011.6653,688.3679)" d="M0 0C-1.183 2.068-1.773 5.257-1.773 9.563V76.69H-18.238V9.563C-18.238 5.172-17.902 1.815-17.225-.506-16.55-2.829-15.41-4.477-13.805-5.446-12.203-6.418-9.879-6.902-6.839-6.902H8.359V-3.103H7.093C3.546-3.103 1.182-2.069 0 0" fill="#215433"/>
<path transform="matrix(1,0,0,-1,1106.1492,652.0809)" d="M0 0-15.578 9.246C-20.223 11.947-23.579 14.376-25.647 16.528-27.718 18.682-28.751 21.405-28.751 24.698-28.751 28.498-27.421 31.494-24.761 33.69-22.102 35.886-18.491 36.983-13.932 36.983-7.346 36.983-2.111 35.084 1.773 31.284 5.656 27.484 8.316 21.278 9.753 12.666H13.299V27.484C13.299 30.524 11.906 33.204 9.119 35.527 6.333 37.849 2.743 39.622-1.646 40.847-6.037 42.069-10.598 42.684-15.325 42.684-24.022 42.684-30.926 40.74-36.033 36.857-41.143 32.973-43.696 27.694-43.696 21.025-43.696 16.295-42.493 12.159-40.086 8.612-37.68 5.066-33.648 1.646-27.99-1.646L-12.412-11.019C-7.937-13.806-4.645-16.382-2.533-18.745-.423-21.109 .634-23.981 .634-27.357 .634-31.327-.803-34.367-3.673-36.477-6.544-38.588-10.429-39.644-15.325-39.644-22.588-39.644-28.244-37.743-32.297-33.943-36.35-30.144-39.01-23.937-40.276-15.325H-43.822V-30.144C-43.822-33.184-42.43-35.865-39.643-38.187-36.856-40.51-33.269-42.283-28.877-43.506-24.487-44.729-19.928-45.343-15.198-45.343-5.065-45.343 2.765-43.253 8.296-39.073 13.825-34.894 16.592-29.131 16.592-21.784 16.592-17.225 15.304-13.32 12.729-10.069 10.152-6.819 5.909-3.463 0 0" fill="#215433"/>
<path transform="matrix(1,0,0,-1,1190.3738,628.14236)" d="M0 0C0 4.306-.338 7.619-1.013 9.942-1.689 12.264-2.829 13.932-4.433 14.945-6.037 15.958-8.358 16.465-11.398 16.465H-26.598V12.665H-25.331C-21.784 12.665-19.422 11.63-18.238 9.563-17.057 7.492-16.465 4.306-16.465 0V-67.128H43.696V-61.429H0Z" fill="#215433"/>
<path transform="matrix(1,0,0,-1,1289.1638,666.5192)" d="M0 0 14.692 33.057 28.625 0ZM51.803-12.792 23.432 54.842H17.732L-19.631-28.751H-13.045L-2.659-5.699H31.031L33.944-12.792C36.646-19.295 40.15-23.665 44.456-25.901 48.763-28.14 53.576-29.258 58.896-29.258 61.429-29.258 63.455-29.046 64.975-28.624V-25.458C59.402-24.868 55.011-20.645 51.803-12.792" fill="#215433"/>
<path transform="matrix(1,0,0,-1,1456.8552,669.9393)" d="M0 0-43.569 50.662C-45.596 53.278-48.109 55.2-51.105 56.425-54.104 57.648-57.967 58.262-62.694 58.262H-71.561V54.462H-70.927C-66.791 54.462-63.856 53.449-62.125 51.422-60.395 49.396-59.528 46.609-59.528 43.063V-25.331H-53.195V37.363L.507-25.711H6.333V58.262H0Z" fill="#215433"/>
<path transform="matrix(1,0,0,-1,1572.8074,672.97927)" d="M0 0C-2.577-5.572-6.165-9.837-10.766-12.792-15.369-15.748-20.625-17.225-26.534-17.225H-27.801C-30.505-17.225-32.74-17.098-34.514-16.845L-37.301-16.338V55.349L-34.514 55.729C-32.826 56.065-30.588 56.235-27.801 56.235H-26.788C-20.794 56.235-15.474 54.716-10.829 51.676-6.187 48.636-2.577 44.35 0 38.82 2.574 33.289 3.863 26.852 3.863 19.506 3.863 12.074 2.574 5.573 0 0M9.499 50.473C.59 57.692-12.393 61.302-29.447 61.302H-63.898V57.502H-62.632C-59.085 57.502-56.723 56.467-55.539 54.399-54.357 52.329-53.766 49.143-53.766 44.837V-22.291H-26.154C-15.769-22.291-6.883-20.518 .507-16.972 7.894-13.425 13.467-8.466 17.225-2.09 20.981 4.285 22.861 11.652 22.861 20.012 22.861 33.099 18.406 43.253 9.499 50.473" fill="#215433"/>
</svg>
