<svg xmlns="http://www.w3.org/2000/svg" version="1.1" viewBox="410 440 1190 670">
<path transform="matrix(1,0,0,-1,435.7509,1009.98617)" d="M0 0V-10.736H3.789C3.789-5.349 5.03-1.475 7.515 .884 9.998 3.24 13.597 4.42 18.314 4.42H27.282V-73.257H43.701V4.42H70.099V10.104H10.736C3.578 10.104 0 6.735 0 0" fill="#215433"/>
<path transform="matrix(1,0,0,-1,602.7251,1074.3386)" d="M0 0C-3.201-2.147-7.2-3.221-11.999-3.221H-33.597V31.513H-.758V37.197H-33.597V68.772H-13.262C-8.042 68.772-4.105 67.551-1.453 65.11 1.2 62.667 2.526 58.836 2.526 53.616H6.315V64.353C6.315 71.088 2.735 74.457-4.421 74.457H-60.121V70.667H-58.858C-55.321 70.667-52.965 69.636-51.785 67.573-50.607 65.509-50.017 62.331-50.017 58.037V-8.904H-3.284C-.085-8.904 2.273-8.189 3.789-6.757 5.305-5.326 6.609-3.095 7.705-.063L11.367 9.915 7.957 11.178C5.851 5.873 3.199 2.147 0 0" fill="#215433"/>
<path transform="matrix(1,0,0,-1,717.7871,1054.9509)" d="M0 0V-22.482C-4.8-24.673-10.483-25.766-17.051-25.766-25.557-25.766-32.314-22.63-37.323-16.356-42.334-10.084-44.838 .253-44.838 14.651-44.838 25.344-42.564 34.229-38.018 41.302-33.471 48.375-26.482 51.911-17.051 51.911-9.643 51.911-3.811 50.143 .442 46.606 4.693 43.07 7.62 37.469 9.22 29.808H13.009C13.009 33.933 12.82 37.428 12.441 40.291 12.062 43.153 11.156 45.511 9.725 47.364 7.199 50.311 3.325 52.752-1.895 54.69-7.117 56.626-13.432 57.595-20.84 57.595-29.009 57.595-36.271 55.72-42.628 51.975-48.986 48.227-53.891 43.09-57.342 36.565-60.796 30.039-62.521 22.735-62.521 14.651-62.521 6.23-60.563-1.452-56.647-8.399-52.732-15.346-47.301-20.82-40.354-24.818-33.408-28.817-25.64-30.818-17.051-30.818-10.483-30.818-4.464-30.144 1.01-28.797 6.483-27.451 11.62-25.304 16.419-22.355V.253C16.419 8.251 19.113 12.252 24.503 12.252V15.409C14.904 15.409 8.419 13.957 5.052 11.052 1.683 8.146 0 4.462 0 0" fill="#215433"/>
<path transform="matrix(1,0,0,-1,850.7842,1046.8671)" d="M0 0C0-11.115-1.958-19.221-5.873-24.313-9.789-29.409-16.041-31.955-24.629-31.955-31.114-31.955-36.06-29.492-39.47-24.566-42.88-19.641-44.629-12.716-44.711-3.789L-44.838 30.565C-44.838 34.859-45.175 38.163-45.848 40.48-46.523 42.795-47.66 44.459-49.258 45.469-50.859 46.479-53.174 46.985-56.205 46.985H-70.099V43.195C-66.562 43.195-64.206 42.164-63.026 40.102-61.848 38.037-61.257 34.859-61.257 30.565V0C-61.257-25.094-49.89-37.639-27.155-37.639-15.283-37.639-6.737-34.462-1.516-28.104 3.705-21.746 6.315-12.378 6.315 0V46.985H0Z" fill="#215433"/>
<path transform="matrix(1,0,0,-1,995.5649,1076.3591)" d="M0 0C-1.18 2.063-1.769 5.241-1.769 9.536V76.478H-18.188V9.536C-18.188 5.156-17.853 1.81-17.178-.506-16.504-2.822-15.368-4.464-13.767-5.432-12.169-6.4-9.852-6.884-6.821-6.884H8.336V-3.095H7.073C3.536-3.095 1.178-2.064 0 0" fill="#215433"/>
<path transform="matrix(1,0,0,-1,1089.7861,1040.1736)" d="M0 0-15.535 9.221C-20.167 11.914-23.515 14.336-25.577 16.483-27.641 18.63-28.671 21.346-28.671 24.63-28.671 28.419-27.345 31.407-24.692 33.598-22.04 35.786-18.44 36.881-13.894 36.881-7.326 36.881-2.105 34.986 1.769 31.197 5.641 27.408 8.293 21.22 9.726 12.631H13.262V27.408C13.262 30.439 11.872 33.112 9.094 35.429 6.315 37.744 2.735 39.512-1.642 40.733-6.021 41.953-10.568 42.565-15.283 42.565-23.956 42.565-30.84 40.627-35.934 36.755-41.029 32.881-43.575 27.617-43.575 20.967-43.575 16.25-42.375 12.126-39.976 8.589-37.575 5.053-33.556 1.643-27.913-1.642L-12.378-10.988C-7.916-13.767-4.632-16.336-2.526-18.692-.423-21.051 .632-23.914 .632-27.281 .632-31.24-.802-34.271-3.663-36.375-6.526-38.48-10.4-39.533-15.283-39.533-22.525-39.533-28.166-37.639-32.208-33.849-36.249-30.06-38.901-23.871-40.165-15.282H-43.701V-30.06C-43.701-33.091-42.313-35.766-39.533-38.08-36.755-40.397-33.177-42.165-28.798-43.385-24.42-44.604-19.873-45.217-15.156-45.217-5.053-45.217 2.757-43.133 8.272-38.965 13.787-34.797 16.546-29.05 16.546-21.724 16.546-17.177 15.261-13.283 12.693-10.041 10.124-6.8 5.893-3.453 0 0" fill="#215433"/>
<path transform="matrix(1,0,0,-1,1173.7774,1016.3015)" d="M0 0C0 4.294-.338 7.598-1.011 9.915-1.686 12.229-2.822 13.894-4.421 14.903-6.021 15.914-8.337 16.42-11.368 16.42H-26.524V12.63H-25.262C-21.725 12.63-19.368 11.599-18.188 9.536-17.01 7.472-16.42 4.294-16.42 0V-66.941H43.574V-61.258H0Z" fill="#215433"/>
<path transform="matrix(1,0,0,-1,1272.294,1054.572)" d="M0 0 14.651 32.966 28.545 0ZM51.658-12.757 23.366 54.69H17.683L-19.577-28.671H-13.01L-2.652-5.684H30.944L33.85-12.757C36.543-19.241 40.038-23.599 44.333-25.829 48.627-28.062 53.427-29.176 58.731-29.176 61.257-29.176 63.278-28.965 64.794-28.545V-25.387C59.236-24.799 54.857-20.588 51.658-12.757" fill="#215433"/>
<path transform="matrix(1,0,0,-1,1439.5195,1057.9822)" d="M0 0-43.449 50.521C-45.47 53.131-47.977 55.047-50.964 56.269-53.954 57.488-57.807 58.101-62.521 58.101H-71.362V54.311H-70.73C-66.606 54.311-63.68 53.301-61.952 51.279-60.228 49.259-59.363 46.48-59.363 42.943V-25.261H-53.048V37.26L.505-25.64H6.314V58.101H0Z" fill="#215433"/>
<path transform="matrix(1,0,0,-1,1555.1484,1061.0134)" d="M0 0C-2.569-5.558-6.147-9.811-10.736-12.757-15.326-15.705-20.568-17.178-26.461-17.178H-27.724C-30.42-17.178-32.649-17.051-34.418-16.799L-37.196-16.293V55.195L-34.418 55.574C-32.734 55.909-30.503 56.079-27.724 56.079H-26.714C-20.735 56.079-15.431 54.563-10.799 51.532-6.169 48.501-2.569 44.227 0 38.712 2.567 33.196 3.853 26.776 3.853 19.451 3.853 12.04 2.567 5.558 0 0M9.473 50.332C.588 57.531-12.358 61.132-29.366 61.132H-63.721V57.342H-62.458C-58.921 57.342-56.564 56.311-55.385 54.248-54.206 52.184-53.616 49.006-53.616 44.712V-22.229H-26.082C-15.725-22.229-6.864-20.461 .505-16.925 7.872-13.389 13.43-8.442 17.178-2.084 20.923 4.272 22.798 11.62 22.798 19.956 22.798 33.007 18.355 43.133 9.473 50.332" fill="#215433"/>
<path transform="matrix(1,0,0,-1,1297.927,548.085)" d="M0 0 .388 .185C1.048 .476 1.119 1.304 1.137 2.053 .767 2.52 .344 2.987-.132 3.093-.309 3.146-.458 3.12-.599 3.075L-1.031 2.969-2.776 2.547-6.222 1.551C-33.505-7.085-48.362-29.336-59.545-54.161-71.266-79.673-79.109-106.903-89.507-132.706-110.181-187.114-142.822-226.575-196.719-250.281-229.933-265.5-266.345-273.202-302.847-273.704-370.755-275.017-439.747-250.343-482.523-195.935-518.874-150.445-534.295-89.719-527.607-32.139-524.505-4.768-516.503 20.048-503.619 41.841-503.61 41.85-503.61 41.859-503.602 41.868-503.593 41.885-503.584 41.894-503.575 41.912-503.567 41.929-503.557 41.938-503.549 41.956-503.461 42.088-503.372 42.211-503.284 42.335-503.258 42.379-503.223 42.414-503.187 42.458-503.178 42.458-503.178 42.467-503.178 42.467-503.152 42.511-503.117 42.563-503.091 42.616-503.082 42.634-503.073 42.643-503.064 42.661-502.165 44.159-501.24 45.639-500.297 47.102-499.204 48.794-498.076 50.46-496.931 52.107V52.116C-496.878 52.205-496.816 52.284-496.755 52.363-496.596 52.601-496.428 52.839-496.261 53.068-495.996 53.447-495.732 53.826-495.459 54.196V54.205C-495.38 54.319-495.301 54.425-495.221 54.54-494.102 56.091-492.965 57.624-491.802 59.14-491.476 59.572-491.15 60.003-490.815 60.426-490.753 60.506-490.691 60.585-490.621 60.664-490.621 60.664-490.621 60.656-490.612 60.647V60.673 60.682C-490.215 61.193-489.819 61.696-489.405 62.198-488.85 62.903-488.286 63.608-487.704 64.295-487.695 64.313-487.687 64.322-487.669 64.33-487.396 64.674-487.122 65.009-486.841 65.344-486.277 66.005-485.712 66.666-485.131 67.318-485.008 67.476-484.866 67.644-484.708 67.802-484.47 68.067-484.232 68.331-483.994 68.595-484.003 68.569-484.011 68.552-484.011 68.525-484.003 68.56-483.985 68.587-483.968 68.622-482.84 69.891-481.676 71.151-480.496 72.385-479.931 72.975-479.368 73.566-478.786 74.147-478.442 74.5-478.098 74.852-477.746 75.196L-477.622 75.319C-477.535 75.407-477.447 75.496-477.35 75.584-468.044 84.881-457.469 93.341-445.634 100.902-418.024 119.02-386.67 131.719-354.593 139.544-342.176 142.258-329.813 143.827-317.105 146.048-280.225 151.802-244.711 163.999-207.929 169.938-189.704 173.11-171.225 174.511-152.798 175.789-143.739 176.477-134.786 176.891-125.841 175.719-107.714 172.678-89.692 168.079-71.962 163.338-59.193 159.636-46.01 156.067-34.58 149.502-33.223 148.436-31.936 147.272-30.711 146.021-30.614 145.889-30.517 145.757-30.429 145.625-28.64 143.016-27.645 140.064-27.583 137.147-28.235 133.833-29.195 130.52-31.628 128.097-40.114 119.161-53.183 119.487-64.146 115.098-68.781 113.371-73.469 111.635-77.708 109.053-86.432 104.136-90.494 93.658-96.17 86.361-104.198 76.165-115.011 68.076-127.207 63.511-129.745 62.542-132.38 61.669-135.076 60.885-135.111 60.867-135.156 60.858-135.191 60.849-142.699 59.043-150.357 57.836-158.033 57.007-170.723 55.641-184.99 54.452-196.375 61.246-200.411 64.692-203.796 68.86-206.36 73.495-206.668 74.262-206.942 75.046-207.197 75.83-207.823 77.893-208.378 79.972-208.933 82.043-208.96 82.14-208.995 82.228-209.03 82.316-209.03 82.325-209.039 82.343-209.039 82.352-209.233 83.242-209.418 84.123-209.585 84.987-212.864 102.514-210.748 121.073-203.328 137.429-200.57 143.651-197.142 149.634-193.273 155.265-191.978 157.442-189.951 158.693-190.074 161.646-193.097 161.469-194.058 159.107-195.926 157.38-197.512 155.618-199.054 153.802-200.5 151.908-210.898 138.46-217.367 121.787-219.076 104.718-219.314 103.704-219.587 102.7-219.896 101.704-220.865 99.201-222.31 96.963-224.628 95.456-226.337 94.345-228.215 93.675-230.162 93.208-230.876 93.112-231.599 93.015-232.312 92.935-234.516 92.874-236.719 92.671-238.86 92.283-238.975 92.274-239.098 92.266-239.213 92.257-239.451 92.239-239.679 92.186-239.891 92.089L-239.9 92.081C-241.195 91.816-242.473 91.481-243.716 91.076-243.724 91.076-243.733 91.067-243.733 91.067-261.234 86.291-269.73 68.419-268.029 50.425-267.43 43.965-265.147 37.981-261.754 32.65-261.481 31.998-261.244 31.328-261.032 30.65-260.706 28.719-261.049 26.684-261.825 24.868-262.592 23.08-263.772 21.546-265.147 20.207-265.156 20.207-265.156 20.198-265.165 20.198-267.623 18.682-270.109 17.219-272.62 15.801-272.805 15.695-272.973 15.58-273.131 15.466-275.413 14.373-277.731 13.333-280.093 12.346-294.748 6.186-310.981 3.137-326.834 4.415-333.672 5.419-340 7.332-346.609 9.808-347.666 19.185-352.222 27.31-358.77 33.716-361.114 36.58-363.811 39.162-366.816 41.409-374.068 46.838-382.995 49.799-392.037 50.046-392.451 50.054-392.865 50.063-393.279 50.063-397.571 50.284-401.88 49.799-406.022 48.653-412.032 47.596-417.875 45.313-423.065 42.3-424.802 41.286-426.467 40.202-428.071 39.03-428.212 38.906-428.361 38.775-428.511 38.642-431.067 36.351-434.61 32.985-437.8 29.336-438.099 28.993-438.399 28.649-438.698 28.305-439.853 26.931-440.946 25.529-441.906 24.137-444.18 20.85-445.713 17.625-445.59 15.016-441.192 13.915-436.258 15.589-433.428 19.193-425.304 28.825-414.129 36.589-401.449 37.928-377.77 39.99-351.579 24.093-353.183-1.904-353.518-8.513-355.554-15.263-358.541-21.273-359.052-22.304-359.598-23.318-360.171-24.323-360.718-25.353-361.555-26.129-361.185-27.883-360.409-27.856-359.863-27.609-359.413-27.248L-359.404-27.239C-359.378-27.23-359.352-27.213-359.325-27.186-359.321-27.178-359.314-27.171-359.308-27.165-359.202-27.095-359.095-27.029-358.994-26.947-358.87-26.847-358.758-26.735-358.65-26.617-358.549-26.553-358.448-26.477-358.354-26.373-354.918-22.549-352.002-18.54-349.975-13.792-349.191-11.957-348.752-9.984-347.916-8.174-347.569-7.423-347.137-6.762-346.643-6.164-345.826-5.32-344.84-4.61-343.584-4.097-341.583-3.279-339.356-3.157-337.081-3.325-309.517-8.716-280.608-3.52-256.499 10.75-255.757 11.157-255.015 11.564-254.274 11.971-252.932 12.563-251.556 13.067-250.134 13.431-249.382 13.5-248.629 13.549-247.875 13.575-247.601 13.576-247.327 13.586-247.052 13.579-239.333 12.148-232.119 8.25-225.762 3.64-221.209 .34-216.972-3.368-212.701-7.019-208.52-10.594-204.312-14.44-199.56-17.25-195.994-19.358-191.566-20.657-187.494-19.875-185.771-19.707-184.034-19.374-182.305-19.173-181.282-19.147-180.25-19.096-179.235-19.035-179.214-19.035-179.195-19.032-179.174-19.031-179.154-19.032-179.134-19.031-179.114-19.032-179.091-19.033-179.075-19.025-179.054-19.023-179.024-19.021-178.992-19.02-178.962-19.017-177.552-18.947-176.151-18.85-174.767-18.744-165.232-17.96-155.927-17.722-146.453-19.308-141.819-20.047-137.177-20.996-132.499-21.998-132.272-22.061-132.046-22.124-131.819-22.188-131.253-22.369-130.682-22.533-130.102-22.667-130.073-22.673-130.049-22.667-130.022-22.669-129.839-22.724-129.656-22.78-129.473-22.835-129.273-22.896-129.087-22.791-128.975-22.633-128.586-22.083-129.254-21.6-129.641-21.32-129.714-21.267-129.792-21.222-129.867-21.171-129.901-21.124-129.942-21.08-130.001-21.044-130.153-20.952-130.31-20.868-130.463-20.777-130.479-20.764-130.495-20.753-130.511-20.74V-20.739C-130.512-20.738-130.513-20.738-130.515-20.737-131.24-20.137-132.022-19.629-132.849-19.204-133.194-18.993-133.549-18.796-133.907-18.608-135.551-17.746-137.243-16.973-138.964-16.275-142.442-14.864-146.059-13.792-149.745-13.081-151.442-12.754-153.156-12.523-154.875-12.346-154.908-12.337-154.942-12.328-154.975-12.32-156.596-11.923-158.244-11.562-159.892-11.245-165.758-10.056-171.659-9.492-177.577-9.175-188.56-7.156-198.889-2.323-208.419 3.412-213.997 6.769-219.368 10.456-224.694 14.196-229.893 17.846-235.118 21.474-240.153 25.35-243.695 28.078-247.128 30.958-250.347 34.059-254.767 40.112-257.616 47.349-258.401 54.763-258.587 56.519-258.662 58.293-258.63 60.065-258.629 60.077-258.628 60.089-258.626 60.1-258.514 61.053-258.366 61.997-258.177 62.941-255.877 69.716-251.636 75.682-245.11 79.487-237.06 84.18-226.742 83.935-219.541 78.394-219.262 78.078-219.001 77.746-218.731 77.423-218.517 77.106-218.308 76.787-218.102 76.465-217.585 75.471-217.099 74.461-216.651 73.433-215.604 69.515-214.26 65.685-212.599 61.951-209.118 54.09-202.703 48.309-194.886 44.837-194.868 44.829-194.851 44.82-194.833 44.811-194.76 44.777-194.682 44.749-194.608 44.716-186.414 40.754-177.155 39.248-168.068 39.578-156.47 39.999-145.249 43.383-134.584 47.778-131.575 49.019-128.6 50.337-125.642 51.693-125.636 51.697-125.627 51.698-125.621 51.702-120.033 53.905-114.632 56.611-109.67 59.986-101.492 65.644-94.125 72.482-88.353 80.642-82.907 87.912-80.519 96.98-73.108 101.897-71.83 102.77-70.455 103.493-69.045 104.162-62.427 107.396-55.58 109.838-48.415 111.635-44.883 112.534-41.139 113.6-37.667 115.168-37.666 115.168-37.665 115.168-37.664 115.168-37.654 115.173-37.643 115.177-37.634 115.181-37.556 115.212-37.478 115.244-37.4 115.275-37.387 115.28-37.376 115.287-37.363 115.293-29.989 118.318-22.302 121.86-18.059 128.992-14.137 135.583-14.445 143.469-19.477 149.36-24.85 155.651-33.622 158.68-41.053 161.763-46.395 163.979-51.828 165.9-57.351 167.535-57.454 167.569-57.557 167.604-57.66 167.638-57.695 167.647-57.73 167.664-57.774 167.673-70.649 171.877-83.718 175.208-96.884 178.548-105.943 180.707-115.389 183.174-124.589 184.698-138.831 186.849-153.142 185.148-167.356 184.514-190.894 183.306-214.309 180.169-237.38 175.349-255.701 171.489-273.554 166.492-291.822 162.835-310.108 158.931-328.226 156.649-346.768 153.432-356.188 151.776-365.494 149.282-374.536 146.294-437.006 125.4-500.632 88.652-527.739 25.582-551.347-27.574-552.22-89.825-532.568-144.347-507.056-217.437-444.197-264.847-370.191-279.855-370.19-279.855-370.19-279.855-370.189-279.855-324.3-292.405-275.198-291.205-229.888-275.46-225.929-274.084-222.01-272.599-218.132-271.016-218.124-271.016-218.115-271.016-218.107-271.008-172.573-255.348-131.745-228.479-105.978-187.017-80.458-147.096-70.949-100.276-52.17-57.545-41.251-33.558-24.49-11.069 0 0" fill="#215433"/>
<path transform="matrix(1,0,0,-1,895.014,555.0784)" d="M0 0C2.921 2.168 6.389 3.451 9.575 5.211 11.864 6.686 13.969 8.547 15.614 10.834 9.234 16.388 .675 12.423-5.622 8.766-18.435 1.223-26.492-13.667-26.132-28.469-26.085-36.735-23.798-44.823-19.79-51.933-17.937-55.065-16.004-58.177-13.909-61.158-12.991-62.447-11.798-63.656-10.62-64.7-10.506-64.792-10.239-65.081-9.698-65.398-8.016-66.519-6.01-66.066-4.089-65.968 11.491-65.644 27.075-70.526 40.6-78.242 42.177-79.097 43.722-79.996 45.383-80.781 45.487-80.842 45.59-80.903 45.694-80.963 46.72-81.596 47.774-82.181 48.863-82.705 48.926-82.735 48.988-82.75 49.048-82.753 49.759-83.125 50.655-82.061 50.027-81.289 44.311-74.255 36.989-68.669 28.753-64.948 24.734-62.777 20.534-60.929 16.201-59.462 12.619-57.815 8.803-57.198 4.964-56.606 4.321-56.496 3.677-56.394 3.031-56.302 2.269-56.18 1.508-56.053 .749-55.911-2.557-55.292-6.017-54.274-8.709-52.248-12.6-48.251-14.797-42.724-15.951-37.338-19.059-23.036-11.936-8.081 0 0" fill="#215433"/>
<path transform="matrix(1,0,0,-1,953.5807,615.70639)" d="M0 0C-1.657 3.549-4.194 5.522-6.942 6.985-9.741 8.34-12.573 9.669-15.556 10.637-20.779 12.425-26.359 13.306-31.901 13.381-32.123 13.36-32.338 13.389-32.557 13.378-33.089 13.405-33.62 13.368-34.147 13.268-34.361 13.255-34.575 13.241-34.789 13.216-35.36 13.148-35.926 13.042-36.472 12.859-36.799 12.749-37.179 12.622-37.483 12.418-37.629 12.374-37.772 12.32-37.901 12.25-38.069 12.16-38.206 12.005-38.257 11.819-38.28 11.735-38.278 11.65-38.266 11.568-38.349 11.092-37.794 10.786-37.464 10.56-37.03 10.264-36.582 9.989-36.122 9.735-35.513 9.398-34.877 9.115-34.232 8.854-33.952 8.708-33.673 8.561-33.394 8.415-33.372 8.404-33.346 8.401-33.323 8.394-33.077 8.254-32.815 8.257-32.565 8.167-31.354 7.846-29.612 7.287-28.403 6.895-24.938 5.718-21.528 4.421-18.055 3.253-15.034 2.368-8.311-.352-5.181-.426-3.599-.551-1.938-.529 0 0" fill="#215433"/>
<path transform="matrix(1,0,0,-1,1112.958,547.3538)" d="M0 0C.004-.002 .005-.006 .009-.008 .015-.011 .021-.013 .028-.016 .048-.025 .059-.042 .082-.048 .094-.052 .107-.054 .119-.057 .242-.109 .364-.138 .489-.14 2.716-.69 4.996-.998 7.287-1.062 8.221-1.237 9.106-1.17 10.006-1.078 11.974-.972 13.943-.866 15.916-.792 22.892-.507 32.743 .15 39.635 .223 42.96 .351 46.199 .554 49.461 1.27 50.921 1.432 52.378 1.626 53.829 1.862 53.848 1.865 53.866 1.867 53.885 1.87 54.222 1.925 54.56 1.966 54.896 2.025 54.985 2.04 55.047 2.085 55.097 2.14 55.114 2.151 55.135 2.155 55.151 2.168 55.878 2.752 54.782 3.274 54.345 3.451 54.013 3.584 53.674 3.689 53.331 3.78 53.278 3.796 53.225 3.808 53.172 3.823 53.077 3.846 52.983 3.869 52.888 3.889 52.764 3.918 52.642 3.953 52.516 3.976 51.153 4.52 49.723 4.891 48.278 5.195 48.124 5.233 47.972 5.279 47.816 5.312 44.283 6.567 40.638 7.115 36.897 7.438 27.604 8.349 18.154 8.156 9.011 6.104 8.113 5.943 7.201 5.75 6.338 5.313 5.21 4.885 4.143 4.316 3.164 3.62 2.035 2.9 1.028 2.007 .172 .974 .078 .878-.021 .787-.112 .688-.312 .475-.251 .133 0 0" fill="#215433"/>
<path transform="matrix(1,0,0,-1,1113.4369,534.05307)" d="M0 0C1.419 .131 2.813 .449 4.142 .95 5.257 1.29 6.353 1.693 7.422 2.164 8.254 2.443 9.097 2.708 9.941 2.961L16.781 4.859C16.781 4.859 16.781 4.859 16.781 4.859 17.736 5.187 18.723 5.464 19.719 5.729 23.632 6.562 27.432 7.868 31.04 9.625 31.886 9.897 32.733 10.17 33.579 10.442 33.919 10.552 34.039 11.066 33.685 11.248 30.989 12.631 28.036 13.429 25.022 13.602 24.284 13.704 23.531 13.752 22.76 13.749 17.33 13.515 11.85 12.483 7.038 9.72 5.967 9.085 4.454 8.181 3.495 7.406 3.191 7.162 2.865 6.942 2.569 6.672 2.562 6.667 2.554 6.665 2.547 6.659 2.151 6.309 1.782 5.931 1.436 5.532 1.43 5.526 1.424 5.52 1.418 5.513 1.411 5.506 1.409 5.497 1.403 5.489 1.27 5.336 1.154 5.17 1.029 5.01-.006 3.806-.818 2.417-1.36 .916-1.364 .904-1.361 .894-1.365 .883-1.426 .773-1.486 .665-1.547 .555-1.618 .428-1.62 .305-1.581 .2-1.559-.053-1.334-.253-1.037-.192-.825-.147-.611-.102-.398-.057-.266-.038-.133-.021 0 0" fill="#215433"/>
<path transform="matrix(1,0,0,-1,920.008,593.85488)" d="M0 0C2.033-.642 4.13-1.068 6.249-1.284 6.895-1.425 7.546-1.546 8.2-1.651 10.911-2.351 13.672-2.461 16.446-2.098 20.51-1.671 24.145-1.103 27.917 1.096 24.64 4.072 20.804 5.045 16.74 5.783 13.87 6.365 10.978 6.381 8.127 5.713 7.873 5.644 7.62 5.617 7.365 5.531 7.122 5.478 6.882 5.411 6.646 5.331 6.488 5.285 6.334 5.227 6.181 5.165 6.178 5.163 6.173 5.162 6.17 5.16 6.049 5.111 5.932 5.057 5.815 4.997 3.88 4.344 2.074 3.351 .468 2.08 .239 1.928 .009 1.777-.21 1.611-.806 1.162-.774 .245 0 0" fill="#215433"/>
</svg>
